name analog
datacolumns 19
datarows 34
range 0.678 0.6945
endheader
time	ground_force_vx	ground_force_vy	ground_force_vz	ground_force_px	ground_force_py	ground_force_pz	l_ground_force_vx	l_ground_force_vy	l_ground_force_vz	l_ground_force_px	l_ground_force_py	l_ground_force_pz	ground_torque_x	ground_torque_y	ground_torque_z	l_ground_torque_x	l_ground_torque_y	l_ground_torque_z
0.678	-0.0	-0.0	-0.0	-0.0	-0.0	-0.0	7.994442462921143	7.869953632354736	-504.6021728515625	-0.0	-0.0	-0.0	-0.0	-0.0	-0.0	148374.546875	19307.826171875	2700.47900390625
0.6785	-0.0	-0.0	-0.0	-0.0	-0.0	-0.0	8.181171417236328	6.898643970489502	-503.9036560058594	-0.0	-0.0	-0.0	-0.0	-0.0	-0.0	148486.0625	19318.126953125	2697.176025390625
0.679	-0.0	-0.0	-0.0	-0.0	-0.0	-0.0	7.619224548339844	5.789999961853027	-504.1749267578125	-0.0	-0.0	-0.0	-0.0	-0.0	-0.0	147916.828125	19132.15234375	2739.2578125
0.6795	-0.0	-0.0	-0.0	-0.0	-0.0	-0.0	7.412436962127685	4.573179244995117	-504.0604248046875	-0.0	-0.0	-0.0	-0.0	-0.0	-0.0	147426.671875	19683.240234375	2666.46728515625
0.68	-0.0	-0.0	-0.0	-0.0	-0.0	-0.0	6.910265922546387	3.493884801864624	-502.3111877441406	-0.0	-0.0	-0.0	-0.0	-0.0	-0.0	147074.546875	19603.0234375	2514.152587890625
0.6805	-0.0	-0.0	-0.0	-0.0	-0.0	-0.0	5.459148406982422	2.434177875518799	-500.0618591308594	-0.0	-0.0	-0.0	-0.0	-0.0	-0.0	146457.0	19889.748046875	2381.205322265625
0.681	-0.0	-0.0	-0.0	-0.0	-0.0	-0.0	5.164658546447754	1.943077087402344	-500.60693359375	-0.0	-0.0	-0.0	-0.0	-0.0	-0.0	146066.015625	20178.55078125	2196.478515625
0.6815	-0.0	-0.0	-0.0	-0.0	-0.0	-0.0	4.100071430206299	1.4547563791275024	-502.3207702636719	-0.0	-0.0	-0.0	-0.0	-0.0	-0.0	145712.59375	20178.33203125	1998.272216796875
0.682	-0.0	-0.0	-0.0	-0.0	-0.0	-0.0	3.3131141662597656	1.217289686203003	-501.13916015625	-0.0	-0.0	-0.0	-0.0	-0.0	-0.0	145753.609375	20412.771484375	1881.80419921875
0.6825	-0.0	-0.0	-0.0	-0.0	-0.0	-0.0	2.896439790725708	0.5490772724151611	-503.0517883300781	-0.0	-0.0	-0.0	-0.0	-0.0	-0.0	146136.21875	20681.16796875	1762.749267578125
0.683	-0.0	-0.0	-0.0	-0.0	-0.0	-0.0	2.7883434295654297	0.1816521435976028	-503.7306213378906	-0.0	-0.0	-0.0	-0.0	-0.0	-0.0	146246.125	20713.14453125	1610.29248046875
0.6835	-0.0	-0.0	-0.0	-0.0	-0.0	-0.0	2.4839019775390625	-0.1766433715820312	-503.77728271484375	-0.0	-0.0	-0.0	-0.0	-0.0	-0.0	146190.78125	21157.216796875	1639.6298828125
0.684	-0.0	-0.0	-0.0	-0.0	-0.0	-0.0	2.0087549686431885	-0.5488858222961426	-504.573486328125	-0.0	-0.0	-0.0	-0.0	-0.0	-0.0	146301.28125	21131.298828125	1573.4832763671875
0.6845	-0.0	-0.0	-0.0	-0.0	-0.0	-0.0	2.2049076557159424	-0.706573486328125	-505.222412109375	-0.0	-0.0	-0.0	-0.0	-0.0	-0.0	146390.53125	21092.341796875	1654.194091796875
0.685	-0.0	-0.0	-0.0	-0.0	-0.0	-0.0	2.091269016265869	-0.8832168579101562	-508.41644287109375	-0.0	-0.0	-0.0	-0.0	-0.0	-0.0	146350.515625	21232.560546875	1524.8382568359375
0.6855	-0.0	-0.0	-0.0	-0.0	-0.0	-0.0	1.7553777694702148	-1.4506574869155884	-506.4707336425781	-0.0	-0.0	-0.0	-0.0	-0.0	-0.0	146150.203125	21278.88671875	1424.75390625
0.686	-0.0	-0.0	-0.0	-0.0	-0.0	-0.0	1.5131769180297852	-1.4318255186080933	-506.5989379882813	-0.0	-0.0	-0.0	-0.0	-0.0	-0.0	145955.21875	21794.244140625	1458.820556640625
0.6865	-0.0	-0.0	-0.0	-0.0	-0.0	-0.0	1.153240203857422	-1.6642377376556396	-505.9394226074219	-0.0	-0.0	-0.0	-0.0	-0.0	-0.0	145925.828125	22086.43359375	1222.8741455078125
0.687	-0.0	-0.0	-0.0	-0.0	-0.0	-0.0	1.11600661277771	-2.310544967651367	-507.2052001953125	-0.0	-0.0	-0.0	-0.0	-0.0	-0.0	145990.296875	22308.1953125	1208.7447509765625
0.6875	-0.0	-0.0	-0.0	-0.0	-0.0	-0.0	0.6065024137496948	-2.1381983757019043	-508.5108337402344	-0.0	-0.0	-0.0	-0.0	-0.0	-0.0	146430.015625	22571.17578125	1186.4498291015625
0.6880000000000001	-0.0	-0.0	-0.0	-0.0	-0.0	-0.0	0.7205934524536133	-2.509848117828369	-510.8965759277344	-0.0	-0.0	-0.0	-0.0	-0.0	-0.0	147164.71875	23191.1953125	1066.5106201171875
0.6885	-0.0	-0.0	-0.0	-0.0	-0.0	-0.0	0.2326953411102295	-1.821465015411377	-513.470458984375	-0.0	-0.0	-0.0	-0.0	-0.0	-0.0	147065.109375	23298.072265625	906.9660034179688
0.6890000000000001	-0.0	-0.0	-0.0	-0.0	-0.0	-0.0	-0.9941758513450624	-1.78471040725708	-512.9036865234375	-0.0	-0.0	-0.0	-0.0	-0.0	-0.0	147249.203125	23542.787109375	572.676513671875
0.6895	-0.0	-0.0	-0.0	-0.0	-0.0	-0.0	-2.0248351097106934	-1.7454400062561035	-513.951171875	-0.0	-0.0	-0.0	-0.0	-0.0	-0.0	147468.625	24194.224609375	222.2587432861328
0.6900000000000001	-0.0	-0.0	-0.0	-0.0	-0.0	-0.0	-3.939719438552856	-1.186858057975769	-513.047119140625	-0.0	-0.0	-0.0	-0.0	-0.0	-0.0	146819.4375	24414.919921875	-193.27447509765625
0.6905	-0.0	-0.0	-0.0	-0.0	-0.0	-0.0	-5.393193244934082	-1.3248252868652344	-511.9992370605469	-0.0	-0.0	-0.0	-0.0	-0.0	-0.0	146798.984375	24835.359375	-461.2809753417969
0.6910000000000001	-0.0	-0.0	-0.0	-0.0	-0.0	-0.0	-6.475887298583984	-0.7245818972587585	-510.4596557617188	-0.0	-0.0	-0.0	-0.0	-0.0	-0.0	146551.640625	25042.03515625	-871.0951538085938
0.6915	-0.0	-0.0	-0.0	-0.0	-0.0	-0.0	-7.257656574249268	-0.9880935549736024	-509.625	-0.0	-0.0	-0.0	-0.0	-0.0	-0.0	146011.71875	25591.134765625	-1144.2322998046875
0.6920000000000001	-0.0	-0.0	-0.0	-0.0	-0.0	-0.0	-7.966007232666016	-0.8988996148109436	-507.2509460449219	-0.0	-0.0	-0.0	-0.0	-0.0	-0.0	146083.59375	25795.90625	-1192.455322265625
0.6925	-0.0	-0.0	-0.0	-0.0	-0.0	-0.0	-8.640718460083008	-0.6360596418380737	-507.1793518066406	-0.0	-0.0	-0.0	-0.0	-0.0	-0.0	145673.0	26037.759765625	-1299.803466796875
0.6930000000000001	-0.0	-0.0	-0.0	-0.0	-0.0	-0.0	-8.764538764953613	-0.7948951721191406	-506.2698364257813	-0.0	-0.0	-0.0	-0.0	-0.0	-0.0	144836.59375	25867.935546875	-1436.27099609375
0.6935	-0.0	-0.0	-0.0	-0.0	-0.0	-0.0	-9.048500061035156	-1.20123291015625	-504.8732299804688	-0.0	-0.0	-0.0	-0.0	-0.0	-0.0	144725.78125	26084.673828125	-1549.238037109375
0.6940000000000001	-0.0	-0.0	-0.0	-0.0	-0.0	-0.0	-9.08415699005127	-1.3955399990081787	-502.7772216796875	-0.0	-0.0	-0.0	-0.0	-0.0	-0.0	144154.0625	25965.62109375	-1442.6124267578125
0.6945	-0.0	-0.0	-0.0	-0.0	-0.0	-0.0	-8.996193885803223	-1.624889850616455	-501.9390258789063	-0.0	-0.0	-0.0	-0.0	-0.0	-0.0	143387.0625	25923.88671875	-1454.4544677734375
